<svg width="270.6mm" height="403.4mm" viewBox="0 0 270.6 403.4" xmlns="http://www.w3.org/2000/svg" version="1.1" preserveAspectRatio="xMidYMid meet"><g id="svgGroup" stroke-linecap="round" fill-rule="evenodd" font-size="9pt" stroke="#000" stroke-width="0.25mm" fill="none" style="stroke:#000;stroke-width:0.25mm;fill:none"><path d="M 9.7 401.4 L 22.5 401.4 L 22.5 403.4 L 32.2 403.4 L 32.2 393.7 L 30.2 393.7 L 30.2 380.9 L 32.2 380.9 L 32.2 371.2 L 22.5 371.2 L 22.5 373.2 L 9.7 373.2 L 9.7 371.2 L 0 371.2 L 0 380.9 L 2 380.9 L 2 393.7 L 0 393.7 L 0 403.4 L 9.7 403.4 L 9.7 401.4 Z" id="front_outsideCutPath" stroke="#FF0000" stroke-width="0.1" style="stroke:#FF0000;stroke-width:0.1" vector-effect="non-scaling-stroke"/><path d="M 20.793 389.732 L 20.271 389.732 L 20.271 387.503 A 1.476 1.476 0 0 0 20.254 387.271 Q 20.214 387.02 20.079 386.874 A 0.589 0.589 0 0 0 19.838 386.72 Q 19.743 386.686 19.627 386.674 A 1.384 1.384 0 0 0 19.479 386.666 A 1.58 1.58 0 0 0 19.183 386.692 Q 19.019 386.723 18.892 386.793 A 0.736 0.736 0 0 0 18.686 386.959 A 0.853 0.853 0 0 0 18.538 387.218 Q 18.449 387.456 18.437 387.811 A 3.344 3.344 0 0 0 18.435 387.924 L 18.435 389.732 L 17.913 389.732 L 17.913 386.286 L 18.337 386.286 L 18.422 386.758 L 18.447 386.758 A 1.057 1.057 0 0 1 18.861 386.381 A 1.271 1.271 0 0 1 18.897 386.363 A 1.414 1.414 0 0 1 19.4 386.229 A 1.709 1.709 0 0 1 19.542 386.223 A 2.061 2.061 0 0 1 19.892 386.251 Q 20.26 386.314 20.479 386.523 A 0.905 0.905 0 0 1 20.699 386.869 Q 20.793 387.123 20.793 387.484 L 20.793 389.732 Z M 10.765 386.286 L 10.765 386.691 L 9.888 386.691 L 9.888 389.732 L 9.366 389.732 L 9.366 386.691 L 8.75 386.691 L 8.75 386.456 L 9.366 386.267 L 9.366 386.075 A 2.116 2.116 0 0 1 9.415 385.596 Q 9.568 384.942 10.193 384.828 A 1.587 1.587 0 0 1 10.476 384.805 Q 10.75 384.805 11.117 384.915 L 10.982 385.333 A 2.535 2.535 0 0 0 10.785 385.278 Q 10.686 385.254 10.598 385.244 A 1.123 1.123 0 0 0 10.467 385.236 A 0.704 0.704 0 0 0 10.297 385.255 A 0.452 0.452 0 0 0 10.029 385.432 A 0.604 0.604 0 0 0 9.95 385.593 Q 9.897 385.75 9.889 385.984 A 2.464 2.464 0 0 0 9.888 386.063 L 9.888 386.286 L 10.765 386.286 Z M 23.45 389.301 L 23.45 389.701 Q 23.374 389.738 23.232 389.763 A 1.952 1.952 0 0 1 23.2 389.768 Q 23.046 389.793 22.921 389.795 A 1.336 1.336 0 0 1 22.903 389.795 A 1.363 1.363 0 0 1 22.501 389.741 Q 22.06 389.605 21.944 389.125 A 1.641 1.641 0 0 1 21.903 388.742 L 21.903 386.691 L 21.41 386.691 L 21.41 386.44 L 21.903 386.223 L 22.123 385.487 L 22.425 385.487 L 22.425 386.286 L 23.425 386.286 L 23.425 386.691 L 22.425 386.691 L 22.425 388.72 A 1.051 1.051 0 0 0 22.44 388.904 Q 22.473 389.084 22.573 389.198 A 0.485 0.485 0 0 0 22.871 389.356 A 0.698 0.698 0 0 0 22.979 389.364 A 1.714 1.714 0 0 0 23.23 389.346 A 1.577 1.577 0 0 0 23.246 389.344 Q 23.375 389.323 23.45 389.301 Z M 13.378 386.261 L 13.306 386.745 Q 13.128 386.706 12.985 386.699 A 1.224 1.224 0 0 0 12.929 386.698 A 0.904 0.904 0 0 0 12.261 386.986 A 1.237 1.237 0 0 0 12.213 387.037 A 1.192 1.192 0 0 0 11.926 387.707 A 1.584 1.584 0 0 0 11.916 387.883 L 11.916 389.732 L 11.394 389.732 L 11.394 386.286 L 11.825 386.286 L 11.885 386.924 L 11.91 386.924 A 1.763 1.763 0 0 1 12.107 386.643 A 1.347 1.347 0 0 1 12.372 386.405 A 1.041 1.041 0 0 1 12.966 386.223 A 2.396 2.396 0 0 1 13.181 386.232 A 1.749 1.749 0 0 1 13.378 386.261 Z M 16.95 388.53 A 2.696 2.696 0 0 0 16.998 388.006 A 3.064 3.064 0 0 0 16.997 387.923 Q 16.989 387.636 16.927 387.392 A 1.625 1.625 0 0 0 16.572 386.704 A 1.366 1.366 0 0 0 15.937 386.295 A 1.754 1.754 0 0 0 15.422 386.223 A 2.027 2.027 0 0 0 15.058 386.254 A 1.381 1.381 0 0 0 14.253 386.693 A 1.442 1.442 0 0 0 14.075 386.939 Q 13.831 387.364 13.831 388.006 A 2.611 2.611 0 0 0 13.864 388.429 A 1.931 1.931 0 0 0 14.026 388.956 A 1.716 1.716 0 0 0 14.064 389.03 A 1.413 1.413 0 0 0 14.58 389.578 A 1.453 1.453 0 0 0 14.913 389.726 A 1.676 1.676 0 0 0 15.4 389.795 A 2.027 2.027 0 0 0 15.754 389.766 A 1.392 1.392 0 0 0 16.573 389.322 A 1.456 1.456 0 0 0 16.747 389.084 Q 16.888 388.842 16.95 388.53 Z M 14.372 388.006 A 2.643 2.643 0 0 0 14.397 388.383 Q 14.454 388.773 14.636 389.012 A 0.856 0.856 0 0 0 15.193 389.34 A 1.296 1.296 0 0 0 15.413 389.358 A 1.212 1.212 0 0 0 15.733 389.318 A 0.844 0.844 0 0 0 16.191 389.014 Q 16.389 388.758 16.439 388.325 A 2.75 2.75 0 0 0 16.457 388.006 A 2.605 2.605 0 0 0 16.432 387.635 Q 16.376 387.245 16.191 387.007 A 0.859 0.859 0 0 0 15.657 386.689 A 1.317 1.317 0 0 0 15.407 386.666 A 1.242 1.242 0 0 0 15.097 386.703 A 0.831 0.831 0 0 0 14.633 387.003 A 1.079 1.079 0 0 0 14.465 387.327 Q 14.372 387.607 14.372 388.006 Z" id="front_labelLayer" stroke="#777777" fill="#777777" style="stroke:#777777;fill:#777777" vector-effect="non-scaling-stroke"/><path d="M 50.9 401.4 L 63.7 401.4 L 63.7 403.4 L 76.9 403.4 L 76.9 401.4 L 89.7 401.4 L 89.7 403.4 L 102.9 403.4 L 102.9 401.4 L 115.7 401.4 L 115.7 403.4 L 128.9 403.4 L 128.9 401.4 L 141.7 401.4 L 141.7 403.4 L 154.9 403.4 L 154.9 401.4 L 167.7 401.4 L 167.7 403.4 L 180.9 403.4 L 180.9 401.4 L 193.7 401.4 L 193.7 403.4 L 206.9 403.4 L 206.9 401.4 L 219.7 401.4 L 219.7 403.4 L 233.4 403.4 L 233.4 393.9 L 235.4 393.9 L 235.4 380.7 L 233.4 380.7 L 233.4 371.2 L 219.7 371.2 L 219.7 373.2 L 206.9 373.2 L 206.9 371.2 L 193.7 371.2 L 193.7 373.2 L 180.9 373.2 L 180.9 371.2 L 167.7 371.2 L 167.7 373.2 L 154.9 373.2 L 154.9 371.2 L 141.7 371.2 L 141.7 373.2 L 128.9 373.2 L 128.9 371.2 L 115.7 371.2 L 115.7 373.2 L 102.9 373.2 L 102.9 371.2 L 89.7 371.2 L 89.7 373.2 L 76.9 373.2 L 76.9 371.2 L 63.7 371.2 L 63.7 373.2 L 50.9 373.2 L 50.9 371.2 L 37.2 371.2 L 37.2 380.7 L 35.2 380.7 L 35.2 393.9 L 37.2 393.9 L 37.2 403.4 L 50.9 403.4 L 50.9 401.4 Z" id="left_outsideCutPath" stroke="#FF0000" stroke-width="0.1" style="stroke:#FF0000;stroke-width:0.1" vector-effect="non-scaling-stroke"/><path d="M 137.591 386.286 L 137.591 386.691 L 136.713 386.691 L 136.713 389.732 L 136.191 389.732 L 136.191 386.691 L 135.575 386.691 L 135.575 386.456 L 136.191 386.267 L 136.191 386.075 A 2.116 2.116 0 0 1 136.241 385.596 Q 136.394 384.942 137.019 384.828 A 1.587 1.587 0 0 1 137.301 384.805 Q 137.575 384.805 137.943 384.915 L 137.808 385.333 A 2.535 2.535 0 0 0 137.611 385.278 Q 137.511 385.254 137.423 385.244 A 1.123 1.123 0 0 0 137.292 385.236 A 0.704 0.704 0 0 0 137.122 385.255 A 0.452 0.452 0 0 0 136.855 385.432 A 0.604 0.604 0 0 0 136.775 385.593 Q 136.722 385.75 136.715 385.984 A 2.464 2.464 0 0 0 136.713 386.063 L 136.713 386.286 L 137.591 386.286 Z M 135.147 387.773 L 135.147 388.103 L 132.773 388.103 Q 132.784 388.518 132.923 388.796 A 0.98 0.98 0 0 0 133.08 389.025 Q 133.371 389.339 133.899 389.339 A 2.757 2.757 0 0 0 134.932 389.135 A 3.16 3.16 0 0 0 135 389.106 L 135 389.572 A 3.134 3.134 0 0 1 134.714 389.68 A 2.396 2.396 0 0 1 134.476 389.743 Q 134.229 389.795 133.88 389.795 Q 133.116 389.795 132.674 389.33 A 1.536 1.536 0 0 1 132.307 388.655 Q 132.233 388.377 132.233 388.037 Q 132.233 387.204 132.643 386.713 A 1.338 1.338 0 0 1 133.618 386.227 A 1.845 1.845 0 0 1 133.745 386.223 A 1.59 1.59 0 0 1 134.193 386.283 A 1.21 1.21 0 0 1 134.77 386.649 A 1.46 1.46 0 0 1 135.101 387.316 A 2.125 2.125 0 0 1 135.147 387.773 Z M 139.805 389.301 L 139.805 389.701 Q 139.728 389.738 139.586 389.763 A 1.952 1.952 0 0 1 139.555 389.768 Q 139.4 389.793 139.275 389.795 A 1.336 1.336 0 0 1 139.257 389.795 A 1.363 1.363 0 0 1 138.856 389.741 Q 138.414 389.605 138.298 389.125 A 1.641 1.641 0 0 1 138.257 388.742 L 138.257 386.691 L 137.764 386.691 L 137.764 386.44 L 138.257 386.223 L 138.478 385.487 L 138.779 385.487 L 138.779 386.286 L 139.779 386.286 L 139.779 386.691 L 138.779 386.691 L 138.779 388.72 A 1.051 1.051 0 0 0 138.795 388.904 Q 138.827 389.084 138.927 389.198 A 0.485 0.485 0 0 0 139.225 389.356 A 0.698 0.698 0 0 0 139.333 389.364 A 1.714 1.714 0 0 0 139.584 389.346 A 1.577 1.577 0 0 0 139.6 389.344 Q 139.729 389.323 139.805 389.301 Z M 131.317 384.839 L 131.317 389.732 L 130.795 389.732 L 130.795 384.839 L 131.317 384.839 Z M 132.786 387.679 L 134.588 387.679 Q 134.588 387.345 134.487 387.117 A 0.808 0.808 0 0 0 134.368 386.923 A 0.715 0.715 0 0 0 133.937 386.677 A 1.073 1.073 0 0 0 133.739 386.66 A 1.029 1.029 0 0 0 133.441 386.701 A 0.795 0.795 0 0 0 133.077 386.93 A 1.031 1.031 0 0 0 132.872 387.276 Q 132.82 387.419 132.796 387.59 A 1.972 1.972 0 0 0 132.786 387.679 Z" id="left_labelLayer" stroke="#777777" fill="#777777" style="stroke:#777777;fill:#777777" vector-effect="non-scaling-stroke"/><path d="M 261.1 401.4 L 268.6 401.4 L 268.6 387.9 L 270.6 387.9 L 270.6 374.7 L 268.6 374.7 L 268.6 361.9 L 270.6 361.9 L 270.6 348.7 L 268.6 348.7 L 268.6 335.9 L 270.6 335.9 L 270.6 322.7 L 268.6 322.7 L 268.6 309.9 L 270.6 309.9 L 270.6 296.7 L 268.6 296.7 L 268.6 283.9 L 270.6 283.9 L 270.6 270.7 L 268.6 270.7 L 268.6 257.9 L 270.6 257.9 L 270.6 244.7 L 268.6 244.7 L 268.6 231.9 L 270.6 231.9 L 270.6 218.7 L 268.6 218.7 L 268.6 205.2 L 261.1 205.2 L 261.1 203.2 L 247.9 203.2 L 247.9 205.2 L 240.4 205.2 L 240.4 218.7 L 238.4 218.7 L 238.4 231.9 L 240.4 231.9 L 240.4 244.7 L 238.4 244.7 L 238.4 257.9 L 240.4 257.9 L 240.4 270.7 L 238.4 270.7 L 238.4 283.9 L 240.4 283.9 L 240.4 296.7 L 238.4 296.7 L 238.4 309.9 L 240.4 309.9 L 240.4 322.7 L 238.4 322.7 L 238.4 335.9 L 240.4 335.9 L 240.4 348.7 L 238.4 348.7 L 238.4 361.9 L 240.4 361.9 L 240.4 374.7 L 238.4 374.7 L 238.4 387.9 L 240.4 387.9 L 240.4 401.4 L 247.9 401.4 L 247.9 403.4 L 261.1 403.4 L 261.1 401.4 Z" id="top_outsideCutPath" stroke="#FF0000" stroke-width="0.1" style="stroke:#FF0000;stroke-width:0.1" vector-effect="non-scaling-stroke"/><path d="M 256.814 304.206 L 256.777 304.206 A 4.94 4.94 0 0 1 256.809 304.571 A 4.139 4.139 0 0 1 256.814 304.778 L 256.814 306.196 L 256.292 306.196 L 256.292 301.203 L 256.717 301.203 L 256.789 301.674 L 256.814 301.674 Q 257.016 301.391 257.283 301.265 A 1.307 1.307 0 0 1 257.658 301.156 A 1.692 1.692 0 0 1 257.896 301.14 A 1.6 1.6 0 0 1 258.348 301.2 A 1.183 1.183 0 0 1 258.954 301.608 A 1.567 1.567 0 0 1 259.222 302.13 Q 259.291 302.355 259.314 302.626 A 3.399 3.399 0 0 1 259.327 302.923 A 3.061 3.061 0 0 1 259.286 303.438 Q 259.239 303.712 259.138 303.932 A 1.467 1.467 0 0 1 258.948 304.242 A 1.236 1.236 0 0 1 258.07 304.704 A 1.77 1.77 0 0 1 257.896 304.712 A 1.583 1.583 0 0 1 257.498 304.663 A 1.378 1.378 0 0 1 257.281 304.588 A 1.156 1.156 0 0 1 256.814 304.206 Z M 251.714 304.218 L 251.714 304.618 Q 251.637 304.654 251.495 304.68 A 1.952 1.952 0 0 1 251.464 304.685 Q 251.31 304.71 251.184 304.712 A 1.336 1.336 0 0 1 251.167 304.712 A 1.363 1.363 0 0 1 250.765 304.658 Q 250.323 304.522 250.208 304.042 A 1.641 1.641 0 0 1 250.167 303.658 L 250.167 301.608 L 249.673 301.608 L 249.673 301.357 L 250.167 301.14 L 250.387 300.404 L 250.689 300.404 L 250.689 301.203 L 251.689 301.203 L 251.689 301.608 L 250.689 301.608 L 250.689 303.636 A 1.051 1.051 0 0 0 250.704 303.821 Q 250.736 304.001 250.837 304.114 A 0.485 0.485 0 0 0 251.135 304.273 A 0.698 0.698 0 0 0 251.242 304.281 A 1.714 1.714 0 0 0 251.493 304.263 A 1.577 1.577 0 0 0 251.51 304.261 Q 251.638 304.24 251.714 304.218 Z M 255.329 303.447 A 2.696 2.696 0 0 0 255.377 302.923 A 3.064 3.064 0 0 0 255.376 302.84 Q 255.368 302.553 255.306 302.309 A 1.625 1.625 0 0 0 254.951 301.621 A 1.366 1.366 0 0 0 254.317 301.212 A 1.754 1.754 0 0 0 253.802 301.14 A 2.027 2.027 0 0 0 253.438 301.171 A 1.381 1.381 0 0 0 252.632 301.61 A 1.442 1.442 0 0 0 252.455 301.855 Q 252.211 302.281 252.211 302.923 A 2.611 2.611 0 0 0 252.244 303.346 A 1.931 1.931 0 0 0 252.406 303.872 A 1.716 1.716 0 0 0 252.444 303.947 A 1.413 1.413 0 0 0 252.959 304.495 A 1.453 1.453 0 0 0 253.293 304.643 A 1.676 1.676 0 0 0 253.78 304.712 A 2.027 2.027 0 0 0 254.134 304.682 A 1.392 1.392 0 0 0 254.953 304.239 A 1.456 1.456 0 0 0 255.126 304 Q 255.268 303.758 255.329 303.447 Z M 252.752 302.923 A 2.643 2.643 0 0 0 252.777 303.3 Q 252.833 303.69 253.016 303.929 A 0.856 0.856 0 0 0 253.573 304.257 A 1.296 1.296 0 0 0 253.792 304.275 A 1.212 1.212 0 0 0 254.112 304.235 A 0.844 0.844 0 0 0 254.571 303.93 Q 254.768 303.674 254.819 303.242 A 2.75 2.75 0 0 0 254.836 302.923 A 2.605 2.605 0 0 0 254.812 302.552 Q 254.755 302.161 254.571 301.924 A 0.859 0.859 0 0 0 254.037 301.606 A 1.317 1.317 0 0 0 253.786 301.583 A 1.242 1.242 0 0 0 253.477 301.619 A 0.831 0.831 0 0 0 253.013 301.92 A 1.079 1.079 0 0 0 252.845 302.244 Q 252.752 302.524 252.752 302.923 Z M 256.814 302.806 L 256.814 302.923 Q 256.814 303.54 256.989 303.858 A 0.787 0.787 0 0 0 257.056 303.962 A 0.757 0.757 0 0 0 257.441 304.221 Q 257.569 304.261 257.726 304.271 A 1.678 1.678 0 0 0 257.833 304.275 A 0.88 0.88 0 0 0 258.175 304.211 Q 258.386 304.122 258.533 303.913 A 1.262 1.262 0 0 0 258.706 303.544 Q 258.756 303.375 258.775 303.172 A 2.781 2.781 0 0 0 258.786 302.916 Q 258.786 302.493 258.677 302.2 A 1.107 1.107 0 0 0 258.533 301.927 Q 258.28 301.583 257.821 301.583 A 1.504 1.504 0 0 0 257.54 301.608 Q 257.383 301.637 257.263 301.704 A 0.69 0.69 0 0 0 257.056 301.876 A 0.894 0.894 0 0 0 256.917 302.13 Q 256.818 302.397 256.814 302.806 Z" id="top_labelLayer" stroke="#777777" fill="#777777" style="stroke:#777777;fill:#777777" vector-effect="non-scaling-stroke"/><path d="M 9.7 366.2 L 22.5 366.2 L 22.5 368.2 L 32.2 368.2 L 32.2 358.5 L 30.2 358.5 L 30.2 345.7 L 32.2 345.7 L 32.2 336 L 22.5 336 L 22.5 338 L 9.7 338 L 9.7 336 L 0 336 L 0 345.7 L 2 345.7 L 2 358.5 L 0 358.5 L 0 368.2 L 9.7 368.2 L 9.7 366.2 Z" id="back_outsideCutPath" stroke="#FF0000" stroke-width="0.1" style="stroke:#FF0000;stroke-width:0.1" vector-effect="non-scaling-stroke"/><path d="M 20.509 352.751 L 20.534 352.751 A 3.09 3.09 0 0 1 20.61 352.648 Q 20.698 352.533 20.824 352.387 A 11.218 11.218 0 0 1 20.946 352.248 L 22.059 351.069 L 22.678 351.069 L 21.282 352.537 L 22.776 354.515 L 22.144 354.515 L 20.927 352.886 L 20.534 353.226 L 20.534 354.515 L 20.018 354.515 L 20.018 349.622 L 20.534 349.622 L 20.534 352.216 A 3.478 3.478 0 0 1 20.532 352.315 Q 20.528 352.476 20.51 352.738 A 20.885 20.885 0 0 1 20.509 352.751 Z M 9.946 354.072 L 9.908 354.072 L 9.798 354.515 L 9.424 354.515 L 9.424 349.622 L 9.946 349.622 L 9.946 350.811 A 10.883 10.883 0 0 1 9.94 351.178 Q 9.934 351.352 9.923 351.507 A 6.543 6.543 0 0 1 9.921 351.528 L 9.946 351.528 A 1.187 1.187 0 0 1 10.812 351.025 A 1.783 1.783 0 0 1 11.028 351.012 A 1.595 1.595 0 0 1 11.477 351.072 A 1.194 1.194 0 0 1 12.083 351.476 Q 12.459 351.94 12.459 352.789 A 3.061 3.061 0 0 1 12.418 353.304 Q 12.371 353.578 12.27 353.798 A 1.467 1.467 0 0 1 12.08 354.108 A 1.236 1.236 0 0 1 11.201 354.57 A 1.77 1.77 0 0 1 11.028 354.578 A 1.583 1.583 0 0 1 10.63 354.529 A 1.378 1.378 0 0 1 10.413 354.454 A 1.156 1.156 0 0 1 9.946 354.072 Z M 15.877 354.515 L 15.49 354.515 L 15.386 354.024 L 15.361 354.024 A 2.164 2.164 0 0 1 15.186 354.22 Q 15.092 354.313 14.998 354.378 A 0.962 0.962 0 0 1 14.847 354.463 A 1.204 1.204 0 0 1 14.598 354.542 Q 14.478 354.567 14.338 354.574 A 2.349 2.349 0 0 1 14.207 354.578 A 1.602 1.602 0 0 1 13.881 354.547 Q 13.595 354.487 13.404 354.314 A 0.858 0.858 0 0 1 13.145 353.861 A 1.313 1.313 0 0 1 13.113 353.562 A 0.903 0.903 0 0 1 13.626 352.71 Q 14.039 352.49 14.782 352.468 L 15.367 352.449 L 15.367 352.235 A 1.499 1.499 0 0 0 15.353 352.018 Q 15.336 351.907 15.302 351.819 A 0.583 0.583 0 0 0 15.193 351.636 A 0.53 0.53 0 0 0 14.976 351.495 Q 14.833 351.443 14.635 351.443 Q 14.204 351.443 13.66 351.707 L 13.499 351.308 A 2.407 2.407 0 0 1 13.964 351.117 A 2.739 2.739 0 0 1 14.058 351.091 A 2.417 2.417 0 0 1 14.666 351.012 Q 15.282 351.012 15.58 351.286 A 0.827 0.827 0 0 1 15.793 351.615 Q 15.843 351.75 15.863 351.918 A 2.054 2.054 0 0 1 15.877 352.163 L 15.877 354.515 Z M 19.251 351.185 L 19.09 351.628 A 2.322 2.322 0 0 0 18.839 351.545 A 2.773 2.773 0 0 0 18.713 351.514 Q 18.538 351.475 18.398 351.469 A 1.157 1.157 0 0 0 18.351 351.468 A 1.158 1.158 0 0 0 17.881 351.556 Q 17.301 351.812 17.301 352.807 A 2.528 2.528 0 0 0 17.326 353.176 Q 17.381 353.549 17.557 353.782 A 0.829 0.829 0 0 0 18.095 354.103 A 1.263 1.263 0 0 0 18.317 354.122 A 2.185 2.185 0 0 0 18.92 354.034 A 2.698 2.698 0 0 0 19.201 353.936 L 19.201 354.399 Q 18.855 354.578 18.329 354.578 A 1.951 1.951 0 0 1 17.855 354.523 A 1.323 1.323 0 0 1 17.171 354.117 A 1.51 1.51 0 0 1 16.857 353.541 Q 16.76 353.222 16.76 352.814 A 2.88 2.88 0 0 1 16.805 352.29 Q 16.897 351.795 17.177 351.477 A 1.352 1.352 0 0 1 17.917 351.052 A 2.049 2.049 0 0 1 18.364 351.006 Q 18.612 351.006 18.861 351.059 A 2.606 2.606 0 0 1 19.006 351.094 Q 19.154 351.135 19.251 351.185 Z M 10.952 351.449 A 1.467 1.467 0 0 0 10.668 351.475 Q 10.35 351.538 10.182 351.756 A 0.894 0.894 0 0 0 10.053 352.002 Q 9.965 352.247 9.95 352.618 A 4.022 4.022 0 0 0 9.946 352.789 Q 9.946 353.406 10.121 353.724 A 0.787 0.787 0 0 0 10.188 353.828 A 0.757 0.757 0 0 0 10.572 354.087 Q 10.701 354.127 10.857 354.137 A 1.678 1.678 0 0 0 10.965 354.141 A 1.041 1.041 0 0 0 11.261 354.101 A 0.751 0.751 0 0 0 11.682 353.79 Q 11.85 353.54 11.899 353.133 A 2.991 2.991 0 0 0 11.918 352.782 A 3.084 3.084 0 0 0 11.899 352.431 Q 11.855 352.047 11.706 351.815 A 0.866 0.866 0 0 0 11.682 351.779 A 0.761 0.761 0 0 0 11.197 351.473 A 1.207 1.207 0 0 0 10.952 351.449 Z M 15.355 353.131 L 15.355 352.82 L 14.833 352.842 Q 14.313 352.86 14.035 352.983 A 0.802 0.802 0 0 0 13.935 353.035 A 0.557 0.557 0 0 0 13.67 353.44 A 0.824 0.824 0 0 0 13.66 353.568 A 0.746 0.746 0 0 0 13.678 353.74 Q 13.716 353.9 13.831 353.999 Q 13.979 354.127 14.229 354.144 A 1.174 1.174 0 0 0 14.311 354.147 A 1.437 1.437 0 0 0 14.621 354.115 Q 14.837 354.068 14.997 353.947 A 0.872 0.872 0 0 0 15.076 353.88 A 0.874 0.874 0 0 0 15.32 353.443 Q 15.354 353.303 15.355 353.137 A 1.657 1.657 0 0 0 15.355 353.131 Z" id="back_labelLayer" stroke="#777777" fill="#777777" style="stroke:#777777;fill:#777777" vector-effect="non-scaling-stroke"/><path d="M 50.9 366.2 L 63.7 366.2 L 63.7 368.2 L 76.9 368.2 L 76.9 366.2 L 89.7 366.2 L 89.7 368.2 L 102.9 368.2 L 102.9 366.2 L 115.7 366.2 L 115.7 368.2 L 128.9 368.2 L 128.9 366.2 L 141.7 366.2 L 141.7 368.2 L 154.9 368.2 L 154.9 366.2 L 167.7 366.2 L 167.7 368.2 L 180.9 368.2 L 180.9 366.2 L 193.7 366.2 L 193.7 368.2 L 206.9 368.2 L 206.9 366.2 L 219.7 366.2 L 219.7 368.2 L 233.4 368.2 L 233.4 358.7 L 235.4 358.7 L 235.4 345.5 L 233.4 345.5 L 233.4 336 L 219.7 336 L 219.7 338 L 206.9 338 L 206.9 336 L 193.7 336 L 193.7 338 L 180.9 338 L 180.9 336 L 167.7 336 L 167.7 338 L 154.9 338 L 154.9 336 L 141.7 336 L 141.7 338 L 128.9 338 L 128.9 336 L 115.7 336 L 115.7 338 L 102.9 338 L 102.9 336 L 89.7 336 L 89.7 338 L 76.9 338 L 76.9 336 L 63.7 336 L 63.7 338 L 50.9 338 L 50.9 336 L 37.2 336 L 37.2 345.5 L 35.2 345.5 L 35.2 358.7 L 37.2 358.7 L 37.2 368.2 L 50.9 368.2 L 50.9 366.2 Z" id="right_outsideCutPath" stroke="#FF0000" stroke-width="0.1" style="stroke:#FF0000;stroke-width:0.1" vector-effect="non-scaling-stroke"/><path d="M 139.305 353.773 L 138.783 353.773 L 138.783 351.543 A 1.476 1.476 0 0 0 138.766 351.312 Q 138.726 351.06 138.591 350.914 A 0.589 0.589 0 0 0 138.349 350.76 Q 138.255 350.727 138.138 350.714 A 1.384 1.384 0 0 0 137.99 350.707 A 1.58 1.58 0 0 0 137.695 350.733 Q 137.531 350.764 137.405 350.833 A 0.731 0.731 0 0 0 137.196 351.003 A 0.869 0.869 0 0 0 137.049 351.264 Q 136.96 351.503 136.948 351.858 A 3.369 3.369 0 0 0 136.946 351.971 L 136.946 353.773 L 136.424 353.773 L 136.424 348.88 L 136.946 348.88 L 136.946 350.361 A 4.695 4.695 0 0 1 136.943 350.541 Q 136.937 350.692 136.921 350.804 L 136.952 350.804 Q 137.107 350.556 137.391 350.413 A 1.34 1.34 0 0 1 137.831 350.282 A 1.694 1.694 0 0 1 138.04 350.27 Q 138.456 350.27 138.735 350.4 A 0.941 0.941 0 0 1 138.989 350.57 Q 139.305 350.87 139.305 351.525 L 139.305 353.773 Z M 134.525 350.326 L 135.717 350.326 L 135.717 350.657 L 135.078 350.732 A 0.848 0.848 0 0 1 135.152 350.841 Q 135.197 350.92 135.236 351.02 A 1.004 1.004 0 0 1 135.295 351.26 A 1.29 1.29 0 0 1 135.305 351.421 A 1.197 1.197 0 0 1 135.25 351.792 A 0.968 0.968 0 0 1 134.959 352.229 A 1.158 1.158 0 0 1 134.503 352.469 Q 134.331 352.517 134.126 352.528 A 2.267 2.267 0 0 1 134.009 352.531 A 1.678 1.678 0 0 1 133.815 352.52 A 1.417 1.417 0 0 1 133.72 352.506 Q 133.387 352.682 133.387 352.949 A 0.271 0.271 0 0 0 133.4 353.038 Q 133.427 353.114 133.503 353.158 Q 133.597 353.213 133.799 353.223 A 1.986 1.986 0 0 0 133.902 353.226 L 134.512 353.226 Q 135.072 353.226 135.372 353.462 A 0.764 0.764 0 0 1 135.656 353.948 A 1.147 1.147 0 0 1 135.673 354.147 A 1.13 1.13 0 0 1 135.608 354.538 Q 135.504 354.823 135.231 355.008 A 1.24 1.24 0 0 1 135.214 355.02 Q 134.754 355.32 133.874 355.32 Q 133.43 355.32 133.12 355.212 A 1.213 1.213 0 0 1 132.832 355.068 Q 132.465 354.817 132.465 354.358 A 0.798 0.798 0 0 1 132.666 353.814 A 0.911 0.911 0 0 1 132.98 353.586 A 1.292 1.292 0 0 1 133.232 353.502 A 0.542 0.542 0 0 1 133.022 353.332 A 0.643 0.643 0 0 1 133.011 353.317 A 0.484 0.484 0 0 1 132.922 353.055 A 0.599 0.599 0 0 1 132.921 353.024 A 0.597 0.597 0 0 1 132.951 352.832 A 0.529 0.529 0 0 1 133.022 352.694 A 0.747 0.747 0 0 1 133.12 352.583 Q 133.173 352.534 133.24 352.486 A 1.64 1.64 0 0 1 133.339 352.421 A 0.915 0.915 0 0 1 132.942 352.102 A 1.134 1.134 0 0 1 132.904 352.047 Q 132.736 351.782 132.736 351.443 A 1.508 1.508 0 0 1 132.775 351.086 A 0.992 0.992 0 0 1 133.075 350.57 A 1.109 1.109 0 0 1 133.501 350.336 Q 133.67 350.284 133.873 350.269 A 2.305 2.305 0 0 1 134.037 350.264 A 2.001 2.001 0 0 1 134.302 350.28 A 1.524 1.524 0 0 1 134.525 350.326 Z M 141.962 353.342 L 141.962 353.741 Q 141.885 353.778 141.743 353.804 A 1.952 1.952 0 0 1 141.712 353.809 Q 141.558 353.834 141.432 353.836 A 1.336 1.336 0 0 1 141.415 353.836 A 1.363 1.363 0 0 1 141.013 353.782 Q 140.571 353.645 140.456 353.166 A 1.641 1.641 0 0 1 140.415 352.782 L 140.415 350.732 L 139.921 350.732 L 139.921 350.481 L 140.415 350.264 L 140.635 349.528 L 140.937 349.528 L 140.937 350.326 L 141.937 350.326 L 141.937 350.732 L 140.937 350.732 L 140.937 352.76 A 1.051 1.051 0 0 0 140.952 352.945 Q 140.984 353.125 141.084 353.238 A 0.485 0.485 0 0 0 141.382 353.397 A 0.698 0.698 0 0 0 141.49 353.405 A 1.714 1.714 0 0 0 141.741 353.387 A 1.577 1.577 0 0 0 141.757 353.385 Q 141.886 353.364 141.962 353.342 Z M 130.623 350.301 L 130.55 350.786 Q 130.372 350.746 130.229 350.74 A 1.224 1.224 0 0 0 130.173 350.738 A 0.904 0.904 0 0 0 129.505 351.027 A 1.237 1.237 0 0 0 129.457 351.078 A 1.192 1.192 0 0 0 129.17 351.747 A 1.584 1.584 0 0 0 129.16 351.924 L 129.16 353.773 L 128.638 353.773 L 128.638 350.326 L 129.069 350.326 L 129.129 350.965 L 129.154 350.965 A 1.763 1.763 0 0 1 129.351 350.683 A 1.347 1.347 0 0 1 129.616 350.446 A 1.041 1.041 0 0 1 130.211 350.264 A 2.396 2.396 0 0 1 130.425 350.273 A 1.749 1.749 0 0 1 130.623 350.301 Z M 131.789 350.326 L 131.789 353.773 L 131.267 353.773 L 131.267 350.326 L 131.789 350.326 Z M 134.346 353.694 L 133.72 353.694 Q 133.365 353.694 133.166 353.864 A 0.55 0.55 0 0 0 132.986 354.176 A 0.835 0.835 0 0 0 132.968 354.351 A 0.524 0.524 0 0 0 133.003 354.546 Q 133.053 354.671 133.173 354.756 A 0.613 0.613 0 0 0 133.204 354.776 A 0.836 0.836 0 0 0 133.41 354.864 Q 133.604 354.92 133.876 354.921 A 2.559 2.559 0 0 0 133.88 354.921 A 3.509 3.509 0 0 0 134.223 354.905 Q 134.626 354.865 134.853 354.724 A 0.761 0.761 0 0 0 135.03 354.576 A 0.571 0.571 0 0 0 135.17 354.191 A 0.706 0.706 0 0 0 135.157 354.051 Q 135.122 353.882 134.997 353.803 A 0.495 0.495 0 0 0 134.879 353.752 Q 134.754 353.713 134.556 353.7 A 3.321 3.321 0 0 0 134.346 353.694 Z M 133.251 351.43 A 1.019 1.019 0 0 0 133.272 351.644 Q 133.301 351.776 133.368 351.876 A 0.558 0.558 0 0 0 133.456 351.977 A 0.675 0.675 0 0 0 133.727 352.125 Q 133.831 352.155 133.954 352.161 A 1.344 1.344 0 0 0 134.025 352.163 A 1.137 1.137 0 0 0 134.323 352.127 Q 134.789 352.001 134.789 351.421 Q 134.789 350.644 134.015 350.644 A 1.095 1.095 0 0 0 133.792 350.665 Q 133.655 350.694 133.551 350.76 A 0.601 0.601 0 0 0 133.449 350.842 A 0.626 0.626 0 0 0 133.298 351.097 Q 133.251 351.241 133.251 351.43 Z M 131.23 349.297 A 0.578 0.578 0 0 0 131.223 349.393 Q 131.223 349.481 131.245 349.547 A 0.269 0.269 0 0 0 131.311 349.655 Q 131.399 349.742 131.531 349.742 Q 131.657 349.742 131.748 349.655 A 0.255 0.255 0 0 0 131.798 349.589 Q 131.821 349.546 131.831 349.492 A 0.54 0.54 0 0 0 131.839 349.393 A 0.597 0.597 0 0 0 131.837 349.336 Q 131.824 349.202 131.748 349.132 A 0.308 0.308 0 0 0 131.531 349.047 A 0.398 0.398 0 0 0 131.505 349.048 A 0.302 0.302 0 0 0 131.311 349.13 A 0.244 0.244 0 0 0 131.257 349.207 Q 131.239 349.246 131.23 349.297 Z" id="right_labelLayer" stroke="#777777" fill="#777777" style="stroke:#777777;fill:#777777" vector-effect="non-scaling-stroke"/><path d="M 261.1 198.2 L 268.6 198.2 L 268.6 184.7 L 270.6 184.7 L 270.6 171.5 L 268.6 171.5 L 268.6 158.7 L 270.6 158.7 L 270.6 145.5 L 268.6 145.5 L 268.6 132.7 L 270.6 132.7 L 270.6 119.5 L 268.6 119.5 L 268.6 106.7 L 270.6 106.7 L 270.6 93.5 L 268.6 93.5 L 268.6 80.7 L 270.6 80.7 L 270.6 67.5 L 268.6 67.5 L 268.6 54.7 L 270.6 54.7 L 270.6 41.5 L 268.6 41.5 L 268.6 28.7 L 270.6 28.7 L 270.6 15.5 L 268.6 15.5 L 268.6 2 L 261.1 2 L 261.1 0 L 247.9 0 L 247.9 2 L 240.4 2 L 240.4 15.5 L 238.4 15.5 L 238.4 28.7 L 240.4 28.7 L 240.4 41.5 L 238.4 41.5 L 238.4 54.7 L 240.4 54.7 L 240.4 67.5 L 238.4 67.5 L 238.4 80.7 L 240.4 80.7 L 240.4 93.5 L 238.4 93.5 L 238.4 106.7 L 240.4 106.7 L 240.4 119.5 L 238.4 119.5 L 238.4 132.7 L 240.4 132.7 L 240.4 145.5 L 238.4 145.5 L 238.4 158.7 L 240.4 158.7 L 240.4 171.5 L 238.4 171.5 L 238.4 184.7 L 240.4 184.7 L 240.4 198.2 L 247.9 198.2 L 247.9 200.2 L 261.1 200.2 L 261.1 198.2 Z" id="bottom_outsideCutPath" stroke="#FF0000" stroke-width="0.1" style="stroke:#FF0000;stroke-width:0.1" vector-effect="non-scaling-stroke"/><path d="M 265.094 102.515 L 264.572 102.515 L 264.572 100.273 Q 264.572 100.015 264.503 99.838 A 0.631 0.631 0 0 0 264.396 99.655 Q 264.242 99.475 263.939 99.452 A 1.212 1.212 0 0 0 263.849 99.449 A 1.343 1.343 0 0 0 263.575 99.475 Q 263.29 99.534 263.129 99.729 Q 262.896 100.009 262.896 100.59 L 262.896 102.515 L 262.374 102.515 L 262.374 100.273 Q 262.374 100.015 262.305 99.838 A 0.631 0.631 0 0 0 262.198 99.655 Q 262.022 99.449 261.648 99.449 Q 261.305 99.449 261.091 99.592 A 0.684 0.684 0 0 0 260.929 99.743 A 0.875 0.875 0 0 0 260.799 99.99 Q 260.715 100.228 260.703 100.585 A 3.634 3.634 0 0 0 260.701 100.707 L 260.701 102.515 L 260.179 102.515 L 260.179 99.069 L 260.604 99.069 L 260.688 99.54 L 260.714 99.54 A 1.026 1.026 0 0 1 261.13 99.147 Q 261.399 99.006 261.732 99.006 Q 262.541 99.006 262.789 99.591 L 262.814 99.591 A 1.09 1.09 0 0 1 263.225 99.183 A 1.309 1.309 0 0 1 263.261 99.163 A 1.321 1.321 0 0 1 263.745 99.015 A 1.647 1.647 0 0 1 263.927 99.006 Q 264.322 99.006 264.582 99.142 A 0.86 0.86 0 0 1 264.803 99.306 Q 265.015 99.525 265.072 99.934 A 2.394 2.394 0 0 1 265.094 100.267 L 265.094 102.515 Z M 244.428 102.072 L 244.39 102.072 L 244.28 102.515 L 243.906 102.515 L 243.906 97.622 L 244.428 97.622 L 244.428 98.811 A 10.883 10.883 0 0 1 244.422 99.178 Q 244.416 99.352 244.404 99.507 A 6.543 6.543 0 0 1 244.403 99.528 L 244.428 99.528 A 1.187 1.187 0 0 1 245.294 99.025 A 1.783 1.783 0 0 1 245.51 99.012 A 1.595 1.595 0 0 1 245.959 99.072 A 1.194 1.194 0 0 1 246.565 99.476 Q 246.941 99.94 246.941 100.789 A 3.061 3.061 0 0 1 246.9 101.304 Q 246.853 101.578 246.752 101.798 A 1.467 1.467 0 0 1 246.562 102.108 A 1.236 1.236 0 0 1 245.683 102.57 A 1.77 1.77 0 0 1 245.51 102.578 A 1.583 1.583 0 0 1 245.112 102.529 A 1.378 1.378 0 0 1 244.895 102.454 A 1.156 1.156 0 0 1 244.428 102.072 Z M 253.327 102.084 L 253.327 102.483 Q 253.25 102.52 253.108 102.546 A 1.952 1.952 0 0 1 253.077 102.551 Q 252.923 102.576 252.798 102.578 A 1.336 1.336 0 0 1 252.78 102.578 A 1.363 1.363 0 0 1 252.378 102.524 Q 251.937 102.387 251.821 101.908 A 1.641 1.641 0 0 1 251.78 101.524 L 251.78 99.474 L 251.286 99.474 L 251.286 99.223 L 251.78 99.006 L 252 98.27 L 252.302 98.27 L 252.302 99.069 L 253.302 99.069 L 253.302 99.474 L 252.302 99.474 L 252.302 101.502 A 1.051 1.051 0 0 0 252.317 101.687 Q 252.349 101.867 252.45 101.98 A 0.485 0.485 0 0 0 252.748 102.139 A 0.698 0.698 0 0 0 252.855 102.147 A 1.714 1.714 0 0 0 253.107 102.129 A 1.577 1.577 0 0 0 253.123 102.127 Q 253.252 102.106 253.327 102.084 Z M 255.601 102.084 L 255.601 102.483 Q 255.524 102.52 255.382 102.546 A 1.952 1.952 0 0 1 255.351 102.551 Q 255.196 102.576 255.071 102.578 A 1.336 1.336 0 0 1 255.053 102.578 A 1.363 1.363 0 0 1 254.652 102.524 Q 254.21 102.387 254.094 101.908 A 1.641 1.641 0 0 1 254.053 101.524 L 254.053 99.474 L 253.56 99.474 L 253.56 99.223 L 254.053 99.006 L 254.274 98.27 L 254.575 98.27 L 254.575 99.069 L 255.575 99.069 L 255.575 99.474 L 254.575 99.474 L 254.575 101.502 A 1.051 1.051 0 0 0 254.591 101.687 Q 254.623 101.867 254.723 101.98 A 0.485 0.485 0 0 0 255.021 102.139 A 0.698 0.698 0 0 0 255.129 102.147 A 1.714 1.714 0 0 0 255.38 102.129 A 1.577 1.577 0 0 0 255.396 102.127 Q 255.525 102.106 255.601 102.084 Z M 250.779 101.313 A 2.696 2.696 0 0 0 250.827 100.789 A 3.064 3.064 0 0 0 250.826 100.706 Q 250.818 100.419 250.756 100.175 A 1.625 1.625 0 0 0 250.401 99.487 A 1.366 1.366 0 0 0 249.767 99.078 A 1.754 1.754 0 0 0 249.252 99.006 A 2.027 2.027 0 0 0 248.888 99.037 A 1.381 1.381 0 0 0 248.082 99.476 A 1.442 1.442 0 0 0 247.905 99.721 Q 247.661 100.147 247.661 100.789 A 2.611 2.611 0 0 0 247.693 101.212 A 1.931 1.931 0 0 0 247.856 101.738 A 1.716 1.716 0 0 0 247.894 101.813 A 1.413 1.413 0 0 0 248.409 102.361 A 1.453 1.453 0 0 0 248.743 102.509 A 1.676 1.676 0 0 0 249.23 102.578 A 2.027 2.027 0 0 0 249.584 102.548 A 1.392 1.392 0 0 0 250.403 102.105 A 1.456 1.456 0 0 0 250.576 101.866 Q 250.717 101.624 250.779 101.313 Z M 259.216 101.313 A 2.696 2.696 0 0 0 259.264 100.789 A 3.064 3.064 0 0 0 259.263 100.706 Q 259.255 100.419 259.193 100.175 A 1.625 1.625 0 0 0 258.838 99.487 A 1.366 1.366 0 0 0 258.203 99.078 A 1.754 1.754 0 0 0 257.689 99.006 A 2.027 2.027 0 0 0 257.324 99.037 A 1.381 1.381 0 0 0 256.519 99.476 A 1.442 1.442 0 0 0 256.342 99.721 Q 256.097 100.147 256.097 100.789 A 2.611 2.611 0 0 0 256.13 101.212 A 1.931 1.931 0 0 0 256.292 101.738 A 1.716 1.716 0 0 0 256.33 101.813 A 1.413 1.413 0 0 0 256.846 102.361 A 1.453 1.453 0 0 0 257.179 102.509 A 1.676 1.676 0 0 0 257.667 102.578 A 2.027 2.027 0 0 0 258.02 102.548 A 1.392 1.392 0 0 0 258.839 102.105 A 1.456 1.456 0 0 0 259.013 101.866 Q 259.154 101.624 259.216 101.313 Z M 248.201 100.789 A 2.643 2.643 0 0 0 248.227 101.166 Q 248.283 101.556 248.466 101.795 A 0.856 0.856 0 0 0 249.023 102.123 A 1.296 1.296 0 0 0 249.242 102.141 A 1.212 1.212 0 0 0 249.562 102.101 A 0.844 0.844 0 0 0 250.021 101.796 Q 250.218 101.54 250.269 101.108 A 2.75 2.75 0 0 0 250.286 100.789 A 2.605 2.605 0 0 0 250.262 100.417 Q 250.205 100.027 250.021 99.79 A 0.859 0.859 0 0 0 249.487 99.472 A 1.317 1.317 0 0 0 249.236 99.449 A 1.242 1.242 0 0 0 248.927 99.485 A 0.831 0.831 0 0 0 248.462 99.785 A 1.079 1.079 0 0 0 248.295 100.11 Q 248.201 100.39 248.201 100.789 Z M 256.638 100.789 A 2.643 2.643 0 0 0 256.663 101.166 Q 256.72 101.556 256.902 101.795 A 0.856 0.856 0 0 0 257.46 102.123 A 1.296 1.296 0 0 0 257.679 102.141 A 1.212 1.212 0 0 0 257.999 102.101 A 0.844 0.844 0 0 0 258.457 101.796 Q 258.655 101.54 258.706 101.108 A 2.75 2.75 0 0 0 258.723 100.789 A 2.605 2.605 0 0 0 258.698 100.417 Q 258.642 100.027 258.457 99.79 A 0.859 0.859 0 0 0 257.924 99.472 A 1.317 1.317 0 0 0 257.673 99.449 A 1.242 1.242 0 0 0 257.364 99.485 A 0.831 0.831 0 0 0 256.899 99.785 A 1.079 1.079 0 0 0 256.731 100.11 Q 256.638 100.39 256.638 100.789 Z M 245.434 99.449 A 1.467 1.467 0 0 0 245.15 99.475 Q 244.832 99.538 244.664 99.756 A 0.894 0.894 0 0 0 244.535 100.002 Q 244.447 100.247 244.432 100.618 A 4.022 4.022 0 0 0 244.428 100.789 Q 244.428 101.406 244.603 101.724 A 0.787 0.787 0 0 0 244.67 101.828 A 0.757 0.757 0 0 0 245.054 102.087 Q 245.183 102.127 245.339 102.137 A 1.678 1.678 0 0 0 245.447 102.141 A 1.041 1.041 0 0 0 245.742 102.101 A 0.751 0.751 0 0 0 246.164 101.79 Q 246.332 101.54 246.38 101.133 A 2.991 2.991 0 0 0 246.4 100.782 A 3.084 3.084 0 0 0 246.381 100.431 Q 246.337 100.046 246.188 99.814 A 0.866 0.866 0 0 0 246.164 99.779 A 0.761 0.761 0 0 0 245.679 99.472 A 1.207 1.207 0 0 0 245.434 99.449 Z" id="bottom_labelLayer" stroke="#777777" fill="#777777" style="stroke:#777777;fill:#777777" vector-effect="non-scaling-stroke"/></g></svg>