<?xml version="1.0" encoding="utf-8"?>
<!-- Generator: Adobe Illustrator 27.1.1, SVG Export Plug-In . SVG Version: 6.00 Build 0)  -->
<svg version="1.1" id="Layer_1" xmlns="http://www.w3.org/2000/svg" xmlns:xlink="http://www.w3.org/1999/xlink" x="0px" y="0px"
	 viewBox="0 0 871.7 1145.2" style="enable-background:new 0 0 871.7 1145.2;" xml:space="preserve">
<style type="text/css">
	.st0{fill:none;stroke:#FF0000;stroke-width:0.2835;stroke-linecap:round;stroke-miterlimit:11.3386;}
	
		.st1{display:none;fill-rule:evenodd;clip-rule:evenodd;fill:#777777;stroke:#777777;stroke-width:2.0088;stroke-linecap:round;stroke-miterlimit:11.3386;}
	.st2{fill:#FFFFFF;stroke:#221F20;stroke-width:0.25;stroke-miterlimit:10;}
	.st3{fill:none;stroke:#D93832;stroke-width:0.25;stroke-miterlimit:10;}
</style>
<g id="svgGroup">
	<path id="front_outsideCutPath" vector-effect="non-scaling-stroke" class="st0" d="M53.9,1139.5h35.4v5.7h53.9v-53.9h-5.7v-35.4
		h5.7V1002H89.3v5.7H53.9v-5.7H0v53.9h5.7v35.4H0v53.9h53.9V1139.5z"/>
	<path id="front_labelLayer" vector-effect="non-scaling-stroke" class="st1" d="M92.4,1084.4h-2.3v-9.9c0-0.3,0-0.7-0.1-1
		c-0.1-0.4-0.1-0.7-0.3-1c-0.1-0.3-0.3-0.6-0.5-0.8c-0.5-0.5-1.1-0.8-2-0.9c-0.2,0-0.4,0-0.7,0c-1.6,0-2.8,0.4-3.5,1.3
		c-0.7,0.8-1,2.1-1.1,3.8c0,0.2,0,0.3,0,0.5v8h-2.3v-15.3h1.9l0.4,2.1H82c0.5-0.7,1.1-1.3,1.8-1.7c0.1,0,0.1-0.1,0.2-0.1
		c0.7-0.3,1.5-0.5,2.2-0.6c0.2,0,0.4,0,0.6,0c1.8,0,3.2,0.4,4.2,1.3c0.7,0.7,1.1,1.7,1.3,3c0.1,0.4,0.1,0.9,0.1,1.3V1084.4z
		 M47.9,1069.1v1.8H44v13.5h-2.3v-13.5h-2.7v-1l2.7-0.8v-0.9c0-0.7,0.1-1.4,0.2-2.1c0.5-2.3,2.1-3.5,4.7-3.5c0.4,0,0.7,0,1.1,0.1
		c0.3,0,0.7,0.1,1.1,0.2c0.2,0.1,0.5,0.1,0.7,0.2l-0.6,1.9c-0.6-0.2-1.2-0.3-1.7-0.4c-0.2,0-0.4,0-0.6,0c-0.3,0-0.5,0-0.8,0.1
		c-0.5,0.1-0.9,0.4-1.2,0.8c-0.2,0.2-0.3,0.5-0.4,0.7c-0.2,0.5-0.3,1.2-0.3,2.1v1H47.9z M104.3,1082.5v1.8c-0.1,0-0.2,0.1-0.3,0.1
		c-0.2,0.1-0.4,0.1-0.7,0.2c0,0-0.1,0-0.1,0c-0.2,0-0.4,0.1-0.7,0.1c-0.2,0-0.4,0-0.6,0c0,0-0.1,0-0.1,0c-2.4,0-3.8-1-4.3-3
		c-0.1-0.6-0.2-1.1-0.2-1.7v-9.1h-2.2v-1.1l2.2-1l1-3.3h1.3v3.5h4.4v1.8h-4.4v9c0,0.9,0.2,1.6,0.7,2.1c0.3,0.4,0.8,0.6,1.3,0.7
		c0.2,0,0.3,0,0.5,0c0.4,0,0.7,0,1.1-0.1c0,0,0,0,0.1,0C103.7,1082.6,104,1082.6,104.3,1082.5z M59.5,1069l-0.3,2.2
		c-0.2-0.1-0.5-0.1-0.7-0.1c-0.2,0-0.5-0.1-0.7-0.1c-0.1,0-0.2,0-0.2,0c-1.1,0-2.2,0.5-3,1.3c-0.1,0.1-0.1,0.1-0.2,0.2
		c-0.7,0.8-1.2,1.9-1.3,3c0,0.3,0,0.5,0,0.8v8.2h-2.3v-15.3h1.9l0.3,2.8h0.1c0.3-0.4,0.5-0.9,0.9-1.3c0.3-0.4,0.7-0.8,1.2-1.1
		c0.8-0.5,1.7-0.8,2.6-0.8c0.3,0,0.6,0,1,0C58.9,1068.9,59.2,1068.9,59.5,1069z M73.7,1082.6c0.3-0.3,0.6-0.7,0.8-1.1
		c0.7-1.3,1.1-2.9,1.1-4.8c0-2.4-0.6-4.4-1.9-5.8c-1.3-1.4-3-2.1-5.1-2.1c-0.5,0-1.1,0-1.6,0.1c-1.4,0.2-2.6,0.9-3.6,2
		c-0.3,0.3-0.6,0.7-0.8,1.1c-0.4,0.7-0.7,1.5-0.9,2.4c-0.1,0.8-0.2,1.5-0.2,2.3c0,0.6,0,1.3,0.1,1.9c0.1,0.8,0.4,1.6,0.7,2.3
		c0.1,0.1,0.1,0.2,0.2,0.3c0.5,1,1.3,1.8,2.3,2.4c0.5,0.3,1,0.5,1.5,0.7c0.7,0.2,1.4,0.3,2.2,0.3c0.5,0,1.1,0,1.6-0.1
		C71.4,1084.4,72.7,1083.7,73.7,1082.6z M63.9,1076.8c0,2,0.4,3.4,1.2,4.5c0.8,1,1.9,1.5,3.5,1.5c0.5,0,1-0.1,1.4-0.2
		c0.8-0.2,1.5-0.7,2-1.4c0.3-0.5,0.6-1,0.8-1.5c0.3-0.8,0.4-1.8,0.4-3c0-1.2-0.2-2.3-0.5-3.2c-0.2-0.5-0.4-0.9-0.7-1.3
		c-0.6-0.8-1.4-1.3-2.4-1.4c-0.4-0.1-0.7-0.1-1.1-0.1c-0.5,0-0.9,0.1-1.4,0.2c-0.8,0.2-1.6,0.7-2.1,1.3c-0.6,0.7-0.9,1.7-1.1,2.9
		C63.9,1075.7,63.9,1076.2,63.9,1076.8z"/>
	<path id="left_outsideCutPath" vector-effect="non-scaling-stroke" class="st0" d="M197,1139.5h35.4v5.7h38.3v-5.7h35.4v5.7h38.3
		v-5.7h35.4v5.7h38.3v-5.7h35.4v5.7h38.3v-5.7h35.4v5.7h38.3v-5.7h35.4v5.7h38.3v-5.7h35.4v5.7h39.7v-52.4h5.7v-38.3h-5.7V1002
		h-39.7v5.7h-35.4v-5.7h-38.3v5.7h-35.4v-5.7h-38.3v5.7h-35.4v-5.7h-38.3v5.7h-35.4v-5.7h-38.3v5.7h-35.4v-5.7h-38.3v5.7h-35.4v-5.7
		h-38.3v5.7H197v-5.7h-39.7v52.4h-5.7v38.3h5.7v52.4H197V1139.5z"/>
	<path id="left_labelLayer" vector-effect="non-scaling-stroke" class="st1" d="M446,1069.1v1.8h-3.9v13.5h-2.3v-13.5h-2.7v-1
		l2.7-0.8v-0.9c0-0.7,0.1-1.4,0.2-2.1c0.5-2.3,2.1-3.5,4.7-3.5c0.4,0,0.7,0,1.1,0.1c0.3,0,0.7,0.1,1.1,0.2c0.2,0.1,0.5,0.1,0.7,0.2
		l-0.6,1.9c-0.6-0.2-1.2-0.3-1.7-0.4c-0.2,0-0.4,0-0.6,0c-0.3,0-0.5,0-0.8,0.1c-0.5,0.1-0.9,0.4-1.2,0.8c-0.2,0.2-0.3,0.5-0.4,0.7
		c-0.2,0.5-0.3,1.2-0.3,2.1v1H446z M435.1,1075.7v1.5h-10.6c0,0.5,0.1,1,0.2,1.6c0.1,0.6,0.3,1.1,0.5,1.5c0.2,0.4,0.4,0.7,0.7,1
		c0.9,0.9,2.1,1.4,3.6,1.4c1.6,0,3.1-0.3,4.6-0.9c0.1,0,0.2-0.1,0.3-0.1v2.1c-0.8,0.4-1.6,0.6-2.3,0.8c-0.3,0.1-0.6,0.1-1,0.1
		c-0.3,0-0.7,0.1-1,0.1c-0.2,0-0.4,0-0.7,0c-0.8,0-1.5-0.1-2.3-0.3c-1.2-0.3-2.3-0.9-3.1-1.8c-0.8-0.8-1.4-1.9-1.6-3
		c-0.2-0.7-0.3-1.5-0.3-2.3c0-0.1,0-0.3,0-0.4c0-0.8,0.1-1.6,0.2-2.4c0.2-1,0.5-1.8,1-2.6c0.2-0.3,0.4-0.6,0.6-0.9
		c1.2-1.5,2.8-2.2,4.9-2.2c0.7,0,1.3,0.1,2,0.3c1,0.3,1.9,0.8,2.6,1.6c0.7,0.8,1.2,1.9,1.5,3C435.1,1074.4,435.2,1075,435.1,1075.7z
		 M455.9,1082.5v1.8c-0.1,0-0.2,0.1-0.3,0.1c-0.2,0.1-0.4,0.1-0.7,0.2c0,0-0.1,0-0.1,0c-0.2,0-0.4,0.1-0.7,0.1c-0.2,0-0.4,0-0.6,0
		c0,0-0.1,0-0.1,0c-2.4,0-3.8-1-4.3-3c-0.1-0.6-0.2-1.1-0.2-1.7v-9.1h-2.2v-1.1l2.2-1l1-3.3h1.3v3.5h4.4v1.8h-4.4v9
		c0,0.9,0.2,1.6,0.7,2.1c0.3,0.4,0.8,0.6,1.3,0.7c0.2,0,0.3,0,0.5,0c0.4,0,0.7,0,1.1-0.1c0,0,0,0,0.1,0
		C455.3,1082.6,455.6,1082.6,455.9,1082.5z M418.1,1062.7v21.8h-2.3v-21.8H418.1z M424.6,1075.3h8c0-0.4,0-0.8-0.1-1.3
		c-0.1-0.5-0.2-0.9-0.4-1.2c-0.1-0.3-0.3-0.6-0.5-0.9c-0.5-0.6-1.2-1-1.9-1.1c-0.3-0.1-0.6-0.1-0.9-0.1c-1.2,0-2.2,0.4-2.9,1.2
		c-0.4,0.4-0.7,1-0.9,1.5C424.8,1074,424.7,1074.6,424.6,1075.3z"/>
	<path id="top_outsideCutPath" vector-effect="non-scaling-stroke" class="st0" d="M819.2,1139.5H866v-38.3h5.7V1063H866v-35.4h5.7
		v-38.3H866v-35.4h5.7v-38.3H866v-35.4h5.7v-38.3H866v-35.4h5.7v-38.3H866v-35.4h5.7v-38.3H866v-35.4h5.7v-38.3H866v-38.3h-46.8
		v-5.7h-38.3v5.7h-46.8v38.3h-5.7v38.3h5.7v35.4h-5.7v38.3h5.7v35.4h-5.7v38.3h5.7v35.4h-5.7v38.3h5.7v35.4h-5.7v38.3h5.7v35.4h-5.7
		v38.3h5.7v35.4h-5.7v38.3h5.7v38.3h46.8v5.7h38.3V1139.5z"/>
	<path id="top_labelLayer" vector-effect="non-scaling-stroke" class="st1" d="M810.4,865h-0.2c0.1,0.9,0.2,1.7,0.2,2.5v6.3H808
		v-22.2h1.9l0.3,2.1h0.1c0.3-0.4,0.6-0.7,0.9-1c0.4-0.3,0.7-0.6,1.2-0.8c0.5-0.2,1.1-0.4,1.7-0.5c0.4,0,0.7-0.1,1.1-0.1
		c0.7,0,1.4,0.1,2,0.3c1.1,0.3,2,0.9,2.7,1.8c0.5,0.7,0.9,1.5,1.2,2.3c0.2,0.7,0.3,1.4,0.4,2.2c0,0.4,0.1,0.9,0.1,1.3
		c0,0.8-0.1,1.5-0.2,2.3c-0.2,1.4-0.7,2.6-1.5,3.6c-1,1.2-2.4,1.9-3.9,2.1c-0.3,0-0.5,0-0.8,0c-0.6,0-1.2-0.1-1.8-0.2
		c-0.3-0.1-0.7-0.2-1-0.3C811.6,866.4,810.9,865.8,810.4,865z M787.7,865.1v1.8c-0.1,0-0.2,0.1-0.3,0.1c-0.2,0.1-0.4,0.1-0.7,0.2
		c0,0-0.1,0-0.1,0c-0.2,0-0.4,0.1-0.7,0.1c-0.2,0-0.4,0-0.6,0c0,0-0.1,0-0.1,0c-2.4,0-3.8-1-4.3-3c-0.1-0.6-0.2-1.1-0.2-1.7v-9.1
		h-2.2v-1.1l2.2-1l1-3.3h1.3v3.6h4.4v1.8h-4.4v9c0,0.9,0.2,1.6,0.7,2.1c0.3,0.4,0.8,0.6,1.3,0.7c0.2,0,0.3,0,0.5,0
		c0.4,0,0.7,0,1.1-0.1c0,0,0,0,0.1,0C787.2,865.2,787.5,865.2,787.7,865.1z M802.1,865.2c0.3-0.3,0.6-0.7,0.8-1.1
		c0.7-1.3,1.1-2.9,1.1-4.8c0-2.4-0.6-4.4-1.9-5.8c-1.3-1.4-3-2.1-5.1-2.1c-0.5,0-1.1,0-1.6,0.1c-1.4,0.2-2.6,0.9-3.6,2
		c-0.3,0.3-0.6,0.7-0.8,1.1c-0.4,0.7-0.7,1.5-0.9,2.4c-0.1,0.8-0.2,1.5-0.2,2.3c0,0.6,0,1.3,0.1,1.9c0.1,0.8,0.4,1.6,0.7,2.3
		c0.1,0.1,0.1,0.2,0.2,0.3c0.5,1,1.3,1.8,2.3,2.4c0.5,0.3,1,0.5,1.5,0.7c0.7,0.2,1.4,0.3,2.2,0.3c0.5,0,1.1,0,1.6-0.1
		C799.9,866.9,801.1,866.3,802.1,865.2z M792.3,859.3c0,2,0.4,3.4,1.2,4.5c0.8,1,1.9,1.5,3.5,1.5c0.5,0,1-0.1,1.4-0.2
		c0.8-0.2,1.5-0.7,2-1.4c0.3-0.5,0.6-1,0.8-1.5c0.3-0.8,0.4-1.8,0.4-3c0-1.2-0.2-2.3-0.5-3.2c-0.2-0.5-0.4-0.9-0.7-1.3
		c-0.6-0.8-1.4-1.3-2.4-1.4c-0.4-0.1-0.7-0.1-1.1-0.1c-0.5,0-0.9,0.1-1.4,0.2c-0.8,0.2-1.5,0.7-2.1,1.3c-0.6,0.7-0.9,1.7-1.1,2.9
		C792.3,858.3,792.3,858.8,792.3,859.3z M810.4,858.8v0.5c0,0.5,0,1.1,0.1,1.6c0.1,1.3,0.5,2.4,1,3c0.6,0.8,1.6,1.3,3,1.4
		c0.2,0,0.3,0,0.5,0c1.3,0,2.4-0.5,3.1-1.6c0.3-0.5,0.6-1.1,0.8-1.6c0.1-0.5,0.3-1.1,0.3-1.7c0-0.4,0.1-0.8,0.1-1.1
		c0-0.6,0-1.1-0.1-1.7c-0.1-0.6-0.2-1.1-0.4-1.5c-0.2-0.4-0.4-0.8-0.6-1.2c-0.8-1-1.8-1.5-3.2-1.5c-0.4,0-0.8,0-1.3,0.1
		c-0.9,0.2-1.7,0.6-2.1,1.2c-0.3,0.3-0.5,0.7-0.6,1.1c-0.3,0.7-0.4,1.6-0.4,2.6C810.4,858.6,810.4,858.7,810.4,858.8z"/>
	<path id="back_outsideCutPath" vector-effect="non-scaling-stroke" class="st0" d="M53.9,987.9h35.4v5.7h53.9v-53.9h-5.7v-35.4h5.7
		v-53.9H89.3v5.7H53.9v-5.7H0v53.9h5.7v35.4H0v53.9h53.9V987.9z"/>
	<path id="back_labelLayer" vector-effect="non-scaling-stroke" class="st1" d="M91.2,924.9h0.1c0.1-0.2,0.2-0.3,0.3-0.5
		c0.3-0.3,0.6-0.7,0.9-1.2c0.2-0.2,0.4-0.4,0.5-0.6l4.9-5.2h2.8l-6.2,6.5l6.6,8.8h-2.8l-5.4-7.2l-1.7,1.5v5.7H89V911h2.3v11.5
		c0,0.1,0,0.3,0,0.4C91.3,923.4,91.2,924.1,91.2,924.9z M44.2,930.7h-0.2l-0.5,2h-1.7V911h2.3v5.3c0,0.5,0,1.1,0,1.6
		c0,0.5,0,1-0.1,1.5c0,0,0,0.1,0,0.1h0.1c0.9-1.3,2.3-2.1,3.8-2.2c0.3,0,0.6-0.1,1-0.1c0.7,0,1.3,0.1,2,0.3c1.1,0.3,2,0.9,2.7,1.8
		c0.5,0.7,1,1.5,1.2,2.3c0.3,1,0.5,2.2,0.5,3.5c0,0.8-0.1,1.5-0.2,2.3c-0.2,1.4-0.7,2.6-1.5,3.6c-1,1.2-2.4,1.9-3.9,2.1
		c-0.3,0-0.5,0-0.8,0c-0.6,0-1.2-0.1-1.8-0.2c-0.3-0.1-0.7-0.2-1-0.3C45.5,932.1,44.7,931.5,44.2,930.7z M70.6,932.7h-1.7l-0.5-2.2
		h-0.1c-0.5,0.7-1.1,1.2-1.6,1.6c-0.2,0.1-0.4,0.3-0.7,0.4c-0.6,0.3-1.4,0.4-2.3,0.5c-0.2,0-0.4,0-0.6,0c-0.5,0-1,0-1.4-0.1
		c-0.8-0.2-1.6-0.5-2.1-1c-0.6-0.5-1-1.2-1.2-2c-0.1-0.4-0.1-0.9-0.1-1.3c-0.1-1.6,0.8-3.1,2.3-3.8c1.1-0.6,2.7-1,4.7-1.1
		c0.2,0,0.3,0,0.5,0l2.6-0.1v-0.9c0-0.3,0-0.6-0.1-1c0-0.3-0.1-0.6-0.2-0.9c-0.1-0.3-0.3-0.6-0.5-0.8c-0.4-0.5-1-0.7-1.8-0.8
		c-0.2,0-0.4,0-0.7,0c-1.3,0-2.7,0.4-4.3,1.2l-0.7-1.8c0.7-0.4,1.3-0.6,2.1-0.8c0.1,0,0.3-0.1,0.4-0.1c0.9-0.2,1.8-0.3,2.7-0.3
		c0.5,0,1,0,1.5,0.1c0.5,0.1,1,0.2,1.4,0.4c0.4,0.2,0.8,0.4,1.2,0.7c0.4,0.4,0.8,0.9,0.9,1.5c0.2,0.7,0.4,1.5,0.4,2.4V932.7z
		 M85.6,917.9l-0.7,2c-0.4-0.1-0.7-0.3-1.1-0.4c-0.2-0.1-0.4-0.1-0.6-0.1c-0.2-0.1-0.5-0.1-0.7-0.1c-0.2,0-0.5-0.1-0.7-0.1
		c-0.1,0-0.1,0-0.2,0c-0.7,0-1.4,0.1-2.1,0.4c-1.7,0.8-2.6,2.6-2.6,5.6c0,0.5,0,1.1,0.1,1.6c0.1,0.6,0.2,1.1,0.4,1.5
		c0.2,0.4,0.4,0.8,0.6,1.2c0.6,0.8,1.4,1.3,2.4,1.4c0.3,0.1,0.7,0.1,1,0.1c0.9,0,1.8-0.1,2.7-0.4c0.4-0.1,0.8-0.3,1.3-0.4v2.1
		c-0.5,0.3-1.1,0.5-1.6,0.6c-0.5,0.1-1,0.2-1.6,0.2c-0.2,0-0.4,0-0.6,0c-0.7,0-1.4-0.1-2.1-0.2c-1.2-0.3-2.2-0.9-3-1.8
		c-1.2-1.4-1.8-3.3-1.8-5.8c0-2.6,0.6-4.5,1.9-5.9c1.2-1.4,3-2.1,5.3-2.1c0.7,0,1.5,0.1,2.2,0.2C84.6,917.5,85.2,917.7,85.6,917.9z
		 M48.7,919.1c-0.4,0-0.8,0-1.3,0.1c-0.9,0.2-1.7,0.6-2.2,1.2c-0.2,0.3-0.4,0.7-0.6,1.1c-0.3,0.7-0.4,1.6-0.5,2.7c0,0.3,0,0.5,0,0.8
		c0,0.5,0,1.1,0.1,1.6c0.1,1.3,0.5,2.4,1,3c0.6,0.8,1.6,1.3,3,1.4c0.2,0,0.3,0,0.5,0c0.4,0,0.9-0.1,1.3-0.2c0.8-0.2,1.4-0.7,1.9-1.4
		c0.3-0.4,0.5-0.9,0.7-1.4c0.1-0.5,0.2-1,0.3-1.5c0.1-0.5,0.1-1,0.1-1.6c0-0.5,0-1-0.1-1.6c-0.1-1.2-0.5-2.2-1-2.9
		c-0.5-0.7-1.3-1.2-2.2-1.4C49.4,919.1,49.1,919.1,48.7,919.1z M68.3,926.6v-1.4l-2.3,0.1c-1.5,0.1-2.7,0.3-3.5,0.6
		c-0.2,0.1-0.3,0.1-0.4,0.2c-0.6,0.4-1.1,1-1.2,1.8c0,0.2,0,0.4,0,0.6c0,0.3,0,0.5,0.1,0.8c0.1,0.5,0.3,0.9,0.7,1.2
		c0.4,0.4,1,0.6,1.8,0.6c0.1,0,0.2,0,0.4,0c0.5,0,0.9,0,1.4-0.1c0.8-0.2,1.5-0.5,2-1c0.5-0.5,0.9-1.2,1.1-1.9
		C68.2,927.5,68.3,927.1,68.3,926.6C68.3,926.6,68.3,926.6,68.3,926.6z"/>
	<path id="right_outsideCutPath" vector-effect="non-scaling-stroke" class="st0" d="M197,987.9h35.4v5.7h38.3v-5.7h35.4v5.7h38.3
		v-5.7h35.4v5.7h38.3v-5.7h35.4v5.7h38.3v-5.7h35.4v5.7h38.3v-5.7h35.4v5.7h38.3v-5.7h35.4v5.7h39.7v-52.4h5.7v-38.3h-5.7v-52.4
		h-39.7v5.7h-35.4v-5.7h-38.3v5.7h-35.4v-5.7h-38.3v5.7h-35.4v-5.7h-38.3v5.7h-35.4v-5.7h-38.3v5.7h-35.4v-5.7h-38.3v5.7h-35.4v-5.7
		h-38.3v5.7H197v-5.7h-39.7v52.4h-5.7v38.3h5.7v52.4H197V987.9z"/>
	<path id="right_labelLayer" vector-effect="non-scaling-stroke" class="st1" d="M453.6,929.4h-2.3v-9.9c0-0.3,0-0.7-0.1-1
		c-0.1-0.4-0.1-0.7-0.3-1c-0.1-0.3-0.3-0.6-0.5-0.8c-0.5-0.5-1.1-0.8-2-0.9c-0.2,0-0.4,0-0.7,0c-0.4,0-0.9,0-1.3,0.1
		c-0.5,0.1-0.9,0.2-1.3,0.4c-0.4,0.2-0.7,0.4-0.9,0.8c-0.3,0.3-0.5,0.7-0.7,1.2c-0.3,0.7-0.4,1.6-0.4,2.6c0,0.2,0,0.3,0,0.5v8h-2.3
		v-21.8h2.3v6.6c0,0.6,0,1.1-0.1,1.5c0,0.2,0,0.3-0.1,0.5h0.1c0.5-0.7,1.1-1.3,2-1.7c0.6-0.3,1.3-0.5,2-0.6c0.3,0,0.6-0.1,0.9-0.1
		c1.9,0,3.3,0.4,4.2,1.3c0.4,0.4,0.8,1,1,1.6c0.2,0.4,0.3,0.9,0.3,1.5c0,0.4,0.1,0.8,0.1,1.2V929.4z M432.4,914.1h5.3v1.5l-2.8,0.3
		c0.1,0.2,0.2,0.3,0.3,0.5c0.1,0.2,0.3,0.5,0.4,0.8c0.1,0.3,0.2,0.7,0.3,1.1c0,0.2,0,0.5,0,0.7c0,0.6-0.1,1.1-0.2,1.6
		c-0.2,0.8-0.7,1.4-1.3,1.9c-0.6,0.5-1.3,0.9-2,1.1c-0.5,0.1-1.1,0.2-1.7,0.3c-0.2,0-0.3,0-0.5,0c-0.3,0-0.6,0-0.9,0
		c-0.1,0-0.3,0-0.4-0.1c-0.2,0.1-0.5,0.3-0.7,0.4c-0.2,0.2-0.4,0.4-0.5,0.6c-0.2,0.3-0.3,0.6-0.3,0.9c0,0.1,0,0.3,0.1,0.4
		c0.1,0.2,0.2,0.4,0.5,0.5c0.1,0.1,0.2,0.1,0.4,0.2c0.3,0.1,0.6,0.1,1,0.1c0.2,0,0.3,0,0.5,0h2.7c0.5,0,1,0,1.4,0.1
		c1,0.1,1.8,0.5,2.4,0.9c0.9,0.7,1.3,1.7,1.3,3c0,0.6-0.1,1.2-0.3,1.7c-0.3,0.8-0.9,1.5-1.7,2.1c0,0-0.1,0-0.1,0.1
		c-0.6,0.4-1.2,0.6-1.8,0.8c-0.6,0.2-1.2,0.3-2,0.4c-0.7,0.1-1.5,0.1-2.2,0.1c-0.6,0-1.2,0-1.7-0.1c-1.2-0.2-2.1-0.5-2.9-1
		c-0.5-0.3-0.9-0.8-1.2-1.3c-0.3-0.5-0.4-1.2-0.4-1.9c0-0.9,0.3-1.7,0.9-2.4c0.4-0.4,0.9-0.8,1.4-1c0.4-0.2,0.7-0.3,1.1-0.4
		c-0.4-0.2-0.7-0.4-0.9-0.8c0,0,0,0-0.1-0.1c-0.2-0.3-0.4-0.7-0.4-1.2c0,0,0-0.1,0-0.1c0-0.3,0-0.6,0.1-0.9c0.1-0.2,0.2-0.4,0.3-0.6
		c0.1-0.2,0.3-0.3,0.4-0.5c0.2-0.1,0.3-0.3,0.5-0.4c0.1-0.1,0.3-0.2,0.4-0.3c-0.7-0.3-1.3-0.8-1.8-1.4c-0.1-0.1-0.1-0.2-0.2-0.2
		c-0.5-0.8-0.7-1.7-0.7-2.7c0-0.5,0.1-1.1,0.2-1.6c0.2-0.9,0.7-1.7,1.3-2.3c0.5-0.5,1.2-0.8,1.9-1c0.5-0.2,1.1-0.3,1.7-0.3
		c0.2,0,0.5,0,0.7,0C431,913.8,431.7,913.9,432.4,914.1z M465.4,927.5v1.8c-0.1,0-0.2,0.1-0.3,0.1c-0.2,0.1-0.4,0.1-0.7,0.2
		c0,0-0.1,0-0.1,0c-0.2,0-0.4,0.1-0.7,0.1c-0.2,0-0.4,0-0.6,0c0,0-0.1,0-0.1,0c-2.4,0-3.8-1-4.3-3c-0.1-0.6-0.2-1.1-0.2-1.7v-9.1
		h-2.2v-1.1l2.2-1l1-3.3h1.3v3.6h4.4v1.8h-4.4v9c0,0.9,0.2,1.6,0.7,2.1c0.3,0.4,0.8,0.6,1.3,0.7c0.2,0,0.3,0,0.5,0
		c0.4,0,0.7,0,1.1-0.1c0,0,0,0,0.1,0C464.9,927.6,465.2,927.6,465.4,927.5z M415,914l-0.3,2.2c-0.2-0.1-0.5-0.1-0.7-0.1
		c-0.2,0-0.5-0.1-0.7-0.1c-0.1,0-0.2,0-0.2,0c-1.1,0-2.2,0.5-3,1.3c-0.1,0.1-0.1,0.1-0.2,0.2c-0.7,0.8-1.2,1.9-1.3,3
		c0,0.3,0,0.5,0,0.8v8.2h-2.3v-15.3h1.9l0.3,2.8h0.1c0.3-0.4,0.5-0.9,0.9-1.3c0.3-0.4,0.7-0.8,1.2-1.1c0.8-0.5,1.7-0.8,2.6-0.8
		c0.3,0,0.6,0,1,0C414.5,913.9,414.7,913.9,415,914z M420.2,914.1v15.3h-2.3v-15.3H420.2z M431.6,929.1h-2.8c-0.3,0-0.6,0-1,0.1
		c-0.4,0.1-0.7,0.2-1,0.3c-0.2,0.1-0.4,0.2-0.5,0.4c-0.4,0.4-0.7,0.8-0.8,1.4c-0.1,0.3-0.1,0.5-0.1,0.8c0,0.8,0.3,1.5,1,1.9
		c0.7,0.4,1.7,0.6,3,0.6c0.5,0,1,0,1.5-0.1c1.2-0.1,2.1-0.4,2.8-0.8c0.3-0.2,0.6-0.4,0.8-0.7c0.4-0.5,0.6-1.1,0.6-1.7
		c0-0.2,0-0.4-0.1-0.6c-0.1-0.5-0.3-0.9-0.7-1.1c-0.2-0.1-0.3-0.2-0.5-0.2C433.4,929.1,432.6,929.1,431.6,929.1z M426.7,919
		c0,0.3,0,0.6,0.1,0.9c0.1,0.4,0.2,0.7,0.4,1c0.1,0.2,0.2,0.3,0.4,0.5c0.5,0.5,1.3,0.8,2.2,0.8c0.1,0,0.2,0,0.3,0
		c1.8,0,2.9-0.7,3.2-2.1c0.1-0.4,0.2-0.8,0.2-1.2c0-0.5-0.1-0.9-0.2-1.4c-0.3-1-1-1.7-2-1.9c-0.4-0.1-0.8-0.2-1.3-0.1
		c-0.3,0-0.7,0-1,0.1c-0.4,0.1-0.8,0.2-1.1,0.4c-0.2,0.1-0.3,0.2-0.5,0.4C427,917,426.7,917.8,426.7,919z M417.7,909.5
		c0,0.1,0,0.3,0,0.4c0,0.1,0,0.2,0,0.3c0,0.2,0,0.3,0.1,0.4c0.1,0.2,0.2,0.3,0.3,0.5c0.1,0.1,0.3,0.2,0.5,0.3
		c0.2,0.1,0.3,0.1,0.5,0.1c0.4,0,0.7-0.1,1-0.4c0.3-0.3,0.4-0.6,0.4-1.2c0-0.1,0-0.2,0-0.3c0-0.4-0.2-0.7-0.4-0.9
		c-0.3-0.2-0.6-0.4-1-0.4c-0.4,0-0.7,0.1-1,0.4c-0.1,0.1-0.2,0.2-0.2,0.3C417.8,909.2,417.8,909.4,417.7,909.5z"/>
	<path id="bottom_outsideCutPath" vector-effect="non-scaling-stroke" class="st0" d="M819.2,562.7H866v-38.3h5.7v-38.3H866v-35.4
		h5.7v-38.3H866V377h5.7v-38.3H866v-35.4h5.7V265H866v-35.4h5.7v-38.3H866v-35.4h5.7v-38.3H866V82.2h5.7V43.9H866V5.7h-46.8V0h-38.3
		v5.7h-46.8v38.3h-5.7v38.3h5.7v35.4h-5.7v38.3h5.7v35.4h-5.7v38.3h5.7V265h-5.7v38.3h5.7v35.4h-5.7V377h5.7v35.4h-5.7v38.3h5.7
		v35.4h-5.7v38.3h5.7v38.3h46.8v5.7h38.3V562.7z"/>
	<path id="bottom_labelLayer" vector-effect="non-scaling-stroke" class="st1" d="M847.2,294.9h-2.3v-10c0-0.3,0-0.7-0.1-1
		c-0.1-0.7-0.3-1.3-0.7-1.7c-0.3-0.3-0.7-0.6-1.1-0.7c-0.4-0.1-0.8-0.2-1.3-0.2c-0.4,0-0.8,0-1.2,0.1c-0.8,0.2-1.5,0.6-2,1.1
		c-0.3,0.4-0.5,0.7-0.6,1.2c-0.3,0.7-0.4,1.6-0.4,2.7v8.6h-2.3v-10c0-0.3,0-0.7-0.1-1c-0.1-0.7-0.3-1.3-0.7-1.7
		c-0.5-0.6-1.3-0.9-2.4-0.9c-0.4,0-0.8,0-1.2,0.1c-0.9,0.2-1.5,0.6-2,1.2c-0.7,0.9-1,2.3-1,4.3v8h-2.3v-15.3h1.9l0.4,2.1h0.1
		c0.4-0.7,1.1-1.4,1.9-1.7c0.8-0.4,1.7-0.6,2.7-0.6c2.4,0,4,0.9,4.7,2.6h0.1c0.4-0.8,1.1-1.4,1.8-1.8c0.1,0,0.1-0.1,0.2-0.1
		c0.7-0.4,1.4-0.6,2.2-0.7c0.3,0,0.5,0,0.8,0c1.2,0,2.1,0.2,2.9,0.6c0.4,0.2,0.7,0.4,1,0.7c0.4,0.4,0.7,0.9,0.9,1.4
		c0.3,0.8,0.4,1.7,0.4,2.9V294.9z M755.3,292.9h-0.2l-0.5,2H753v-21.8h2.3v5.3c0,0.5,0,1.1,0,1.6c0,0.5,0,1-0.1,1.5c0,0,0,0.1,0,0.1
		h0.1c0.9-1.3,2.3-2.1,3.9-2.2c0.3,0,0.6-0.1,1-0.1c0.7,0,1.3,0.1,2,0.3c1.1,0.3,2,0.9,2.7,1.8c0.5,0.7,1,1.5,1.2,2.3
		c0.3,1,0.5,2.2,0.5,3.5c0,0.8-0.1,1.5-0.2,2.3c-0.2,1.4-0.7,2.6-1.5,3.6c-1,1.2-2.4,1.9-3.9,2.1c-0.3,0-0.5,0-0.8,0
		c-0.6,0-1.2-0.1-1.8-0.2c-0.3-0.1-0.7-0.2-1-0.3C756.5,294.3,755.8,293.7,755.3,292.9z M794.9,293v1.8c-0.1,0-0.2,0.1-0.3,0.1
		c-0.2,0.1-0.4,0.1-0.7,0.2c0,0-0.1,0-0.1,0c-0.2,0-0.4,0.1-0.7,0.1c-0.2,0-0.4,0-0.6,0c0,0-0.1,0-0.1,0c-2.4,0-3.8-1-4.3-3
		c-0.1-0.6-0.2-1.1-0.2-1.7v-9.1h-2.2v-1.1l2.2-1l1-3.3h1.3v3.5h4.4v1.8h-4.4v9c0,0.9,0.2,1.6,0.7,2.1c0.3,0.4,0.8,0.6,1.3,0.7
		c0.2,0,0.3,0,0.5,0c0.4,0,0.7,0,1.1-0.1c0,0,0,0,0.1,0C794.3,293.1,794.6,293.1,794.9,293z M805,293v1.8c-0.1,0-0.2,0.1-0.3,0.1
		c-0.2,0.1-0.4,0.1-0.7,0.2c0,0-0.1,0-0.1,0c-0.2,0-0.4,0.1-0.7,0.1c-0.2,0-0.4,0-0.6,0c0,0-0.1,0-0.1,0c-2.4,0-3.8-1-4.3-3
		c-0.1-0.6-0.2-1.1-0.2-1.7v-9.1h-2.2v-1.1l2.2-1l1-3.3h1.3v3.5h4.4v1.8h-4.4v9c0,0.9,0.2,1.6,0.7,2.1c0.3,0.4,0.8,0.6,1.3,0.7
		c0.2,0,0.3,0,0.5,0c0.4,0,0.7,0,1.1-0.1c0,0,0,0,0.1,0C804.4,293.1,804.7,293.1,805,293z M781.9,293.1c0.3-0.3,0.6-0.7,0.8-1.1
		c0.7-1.3,1.1-2.9,1.1-4.8c0-2.4-0.6-4.4-1.9-5.8c-1.3-1.4-3-2.1-5.1-2.1c-0.5,0-1.1,0-1.6,0.1c-1.4,0.2-2.6,0.9-3.6,2
		c-0.3,0.3-0.6,0.7-0.8,1.1c-0.4,0.7-0.7,1.5-0.9,2.4c-0.1,0.8-0.2,1.5-0.2,2.3c0,0.6,0,1.3,0.1,1.9c0.1,0.8,0.4,1.6,0.7,2.3
		c0.1,0.1,0.1,0.2,0.2,0.3c0.5,1,1.3,1.8,2.3,2.4c0.5,0.3,1,0.5,1.5,0.7c0.7,0.2,1.4,0.3,2.2,0.3c0.5,0,1.1,0,1.6-0.1
		C779.6,294.8,780.9,294.1,781.9,293.1z M819.4,293.1c0.3-0.3,0.6-0.7,0.8-1.1c0.7-1.3,1.1-2.9,1.1-4.8c0-2.4-0.6-4.4-1.9-5.8
		c-1.3-1.4-3-2.1-5.1-2.1c-0.5,0-1.1,0-1.6,0.1c-1.4,0.2-2.6,0.9-3.6,2c-0.3,0.3-0.6,0.7-0.8,1.1c-0.4,0.7-0.7,1.5-0.9,2.4
		c-0.1,0.8-0.2,1.5-0.2,2.3c0,0.6,0,1.3,0.1,1.9c0.1,0.8,0.4,1.6,0.7,2.3c0.1,0.1,0.1,0.2,0.2,0.3c0.5,1,1.3,1.8,2.3,2.4
		c0.5,0.3,1,0.5,1.5,0.7c0.7,0.2,1.4,0.3,2.2,0.3c0.5,0,1.1,0,1.6-0.1C817.1,294.8,818.4,294.1,819.4,293.1z M772.1,287.2
		c0,2,0.4,3.4,1.2,4.5c0.8,1,1.9,1.5,3.5,1.5c0.5,0,1-0.1,1.4-0.2c0.8-0.2,1.5-0.7,2-1.4c0.3-0.5,0.6-1,0.8-1.5
		c0.3-0.8,0.4-1.8,0.4-3c0-1.2-0.2-2.3-0.5-3.2c-0.2-0.5-0.4-0.9-0.7-1.3c-0.6-0.8-1.4-1.3-2.4-1.4c-0.4-0.1-0.7-0.1-1.1-0.1
		c-0.5,0-0.9,0.1-1.4,0.2c-0.8,0.2-1.5,0.7-2.1,1.3c-0.6,0.7-0.9,1.7-1.1,2.9C772.1,286.2,772.1,286.7,772.1,287.2z M809.6,287.2
		c0,2,0.4,3.4,1.2,4.5c0.8,1,1.9,1.5,3.5,1.5c0.5,0,1-0.1,1.4-0.2c0.8-0.2,1.5-0.7,2-1.4c0.3-0.5,0.6-1,0.8-1.5
		c0.3-0.8,0.4-1.8,0.4-3c0-1.2-0.2-2.3-0.5-3.2c-0.2-0.5-0.4-0.9-0.7-1.3c-0.6-0.8-1.4-1.3-2.4-1.4c-0.4-0.1-0.7-0.1-1.1-0.1
		c-0.5,0-0.9,0.1-1.4,0.2c-0.8,0.2-1.5,0.7-2.1,1.3c-0.6,0.7-0.9,1.7-1.1,2.9C809.6,286.2,809.6,286.7,809.6,287.2z M759.8,281.3
		c-0.4,0-0.8,0-1.3,0.1c-0.9,0.2-1.7,0.6-2.2,1.3c-0.2,0.3-0.4,0.7-0.6,1.1c-0.3,0.7-0.4,1.6-0.5,2.7c0,0.3,0,0.5,0,0.8
		c0,0.5,0,1.1,0.1,1.6c0.1,1.3,0.5,2.4,1,3c0.6,0.8,1.6,1.3,3,1.4c0.2,0,0.3,0,0.5,0c0.4,0,0.9-0.1,1.3-0.2c0.8-0.2,1.4-0.7,1.9-1.4
		c0.3-0.4,0.5-0.9,0.7-1.4c0.1-0.5,0.2-1,0.3-1.5c0.1-0.5,0.1-1,0.1-1.6c0-0.5,0-1-0.1-1.6c-0.1-1.2-0.5-2.2-1-2.9
		c-0.5-0.7-1.3-1.2-2.2-1.4C760.5,281.3,760.1,281.3,759.8,281.3z"/>
</g>
<g>
	
		<rect x="766.1" y="43.9" transform="matrix(-1 -1.224647e-16 1.224647e-16 -1 1600.1575 184.0856)" class="st2" width="68" height="96.4"/>
	<circle class="st3" cx="766.1" cy="43.9" r="3.9"/>
	<circle class="st3" cx="834.1" cy="43.9" r="3.9"/>
	<circle class="st3" cx="834.1" cy="140.2" r="3.9"/>
	<circle class="st3" cx="766.1" cy="140.2" r="3.9"/>
	
		<rect x="766.1" y="162.8" transform="matrix(-1 -1.224647e-16 1.224647e-16 -1 1600.1575 421.9144)" class="st2" width="68" height="96.4"/>
	<circle class="st3" cx="766.1" cy="162.8" r="3.9"/>
	<circle class="st3" cx="834.1" cy="162.8" r="3.9"/>
	<circle class="st3" cx="834.1" cy="259.1" r="3.9"/>
	<circle class="st3" cx="766.1" cy="259.1" r="3.9"/>
</g>
</svg>
